<?xml version="1.0" encoding="UTF-8"?>
<svg width="72px" height="72px" viewBox="0 0 72 72" version="1.1" xmlns="http://www.w3.org/2000/svg" xmlns:xlink="http://www.w3.org/1999/xlink">
    <!-- Generator: Sketch 42 (36781) - http://www.bohemiancoding.com/sketch -->
    <title>target</title>
    <desc>Created with Sketch.</desc>
    <defs>
        <polygon id="path-1" points="71.6976 0.000443076923 71.6976 72 0.000332307693 72 0.000332307693 0.000443076923 71.6976 0.000443076923"></polygon>
    </defs>
    <g id="HOME" stroke="none" stroke-width="1" fill="none" fill-rule="evenodd">
        <g id="Desktop-HD---ICONES-SOLUTIONS" transform="translate(-549.000000, -816.000000)">
            <g id="target" transform="translate(549.000000, 816.000000)">
                <path d="M35.0199901,43 C39.6729721,43 42,40.6663077 42,36 C42,31.3336923 39.6729721,29 35.0199901,29 C32.1742937,29 30.2091525,29.8830769 29.1030894,31.6287692 L35.5569139,35.8826154 L29,40.2172308 C30.0845862,42.0695385 32.0883859,43 35.0199901,43" id="Fill-1" fill="#D0011B"></path>
                <g id="Group-5">
                    <mask id="mask-2" fill="white">
                        <use xlink:href="#path-1"></use>
                    </mask>
                    <g id="Clip-4"></g>
                    <path d="M61.1981169,10.5002585 C54.1986092,3.49964308 45.6981785,0.000443076923 35.6979323,0.000443076923 C25.6976862,0.000443076923 17.1983631,3.49964308 10.1977477,10.5002585 C4.41891692,16.2801969 1.03159385,23.0847508 0.0235938462,30.9105969 L10.2475938,30.9105969 C11.2722092,25.9846892 13.6770092,21.6093046 17.4919015,17.7933046 C22.7080246,12.5771815 28.9609477,9.96967385 36.2517785,9.96967385 C43.5426092,9.96967385 49.7955323,12.5771815 55.0127631,17.7933046 C60.2288862,23.0094277 62.8363938,29.2634585 62.8363938,36.5542892 C62.8363938,43.8440123 60.2288862,50.0980431 55.0127631,55.3141662 C49.7955323,60.5302892 43.5426092,63.1389046 36.2517785,63.1389046 C28.9609477,63.1389046 22.7080246,60.5302892 17.4919015,55.3141662 C13.3413785,51.1625354 10.8701169,46.3440738 10.0227323,40.8809354 L0.000332307693,40.8809354 C0.973993846,48.7931815 4.36685538,55.6686277 10.1977477,61.5006277 C17.1983631,68.5001354 25.6976862,72.0004431 35.6979323,72.0004431 C45.6981785,72.0004431 54.1986092,68.5001354 61.1981169,61.5006277 C68.1976246,54.5000123 71.6979323,45.9995815 71.6979323,36.0004431 C71.6979323,26.0001969 68.1976246,17.4997662 61.1981169,10.5002585" id="Fill-3" fill="#D0011B" mask="url(#mask-2)"></path>
                </g>
                <path d="M15,40.3578974 C15.8673226,44.2786154 17.8129381,47.7439744 20.8747988,50.7374359 C25.1455532,54.9128462 30.2970251,57 36.326982,57 C42.3580551,57 47.4782722,54.9128462 51.6865168,50.7374359 C55.8958777,46.5609231 58,41.4825128 58,35.5 C58,29.5163846 55.8958777,24.4379744 51.6865168,20.2625641 C47.4782722,16.0871538 42.3580551,14 36.326982,14 C30.2970251,14 25.1455532,16.0871538 20.8747988,20.2625641 C17.8665178,23.202 15.942111,26.599 15.0513473,30.4337179 L20.0923109,30.4337179 L20.0923109,24.5405128 L25.5462852,28.0808462 C25.9749234,27.4832564 26.4582576,26.9099231 27.0141478,26.3652564 C29.4252375,24.0024615 32.3442189,22.8205128 35.7699756,22.8205128 C39.1968486,22.8205128 42.084575,24.0024615 44.4320388,26.3652564 C46.7806189,28.7291538 47.9537926,31.5903077 47.9537926,34.9487179 C47.9537926,38.3071282 46.7806189,41.1682821 44.4320388,43.5310769 C42.084575,45.8949744 39.1968486,47.0769231 35.7699756,47.0769231 C32.3442189,47.0769231 29.4252375,45.8949744 27.0141478,43.5310769 C26.6435543,43.1694359 26.3120295,42.7912564 25.9994808,42.405359 L20.0923109,46.2511026 L20.0923109,40.3578974 L15,40.3578974 Z" id="Fill-6" fill="#D0011B"></path>
            </g>
        </g>
    </g>
</svg>