<?xml version="1.0" encoding="UTF-8"?>
<svg width="80px" height="62px" viewBox="0 0 80 62" version="1.1" xmlns="http://www.w3.org/2000/svg" xmlns:xlink="http://www.w3.org/1999/xlink">
    <!-- Generator: Sketch 42 (36781) - http://www.bohemiancoding.com/sketch -->
    <title>Page 1</title>
    <desc>Created with Sketch.</desc>
    <defs></defs>
    <g id="HOME" stroke="none" stroke-width="1" fill="none" fill-rule="evenodd">
        <g id="Desktop-HD---ICONES-SOLUTIONS" transform="translate(-817.000000, -321.000000)" fill="#D0011B">
            <g id="TOP-ROW" transform="translate(218.000000, 278.000000)">
                <g id="CLAVARDAGE" transform="translate(543.000000, 0.000000)">
                    <path d="M125.84375,63.15625 C126.26042,65.23959 126.46875,67.27082 126.46875,69.25 C126.46875,77.27087 123.44795,84.32809 117.40625,90.42188 C111.36455,96.515655 103.81255,100.291659 94.75,101.75 C98.81252,103.312508 103.03123,104.09375 107.40625,104.09375 C111.57294,104.09375 115.58331,103.364591 119.4375,101.90625 C123.29169,103.260423 127.87497,103.9375 133.1875,103.9375 C131.31249,101.645822 129.75001,99.19793 128.5,96.59375 C133.50002,92.11456 136,86.8542 136,80.8125 C136,73.62496 132.61462,67.73961 125.84375,63.15625 Z M118.96875,69.25 C118.96875,62.16663 115.89586,56.12502 109.75,51.125 C103.60414,46.12497 96.18234,43.625 87.48438,43.625 C78.78641,43.625 71.36461,46.12497 65.21875,51.125 C59.072886,56.12502 56,62.16663 56,69.25 C56,76.5417 59.3333,82.73956 66,87.84375 C64.437492,91.8021 62.302097,95.4479 59.59375,98.78125 C68.23963,98.78125 75.11456,97.218766 80.21875,94.09375 C82.71876,94.510419 85.16665,94.71875 87.5625,94.71875 C96.20838,94.71875 103.60414,92.24482 109.75,87.29688 C115.89586,82.34893 118.96875,76.33337 118.96875,69.25 Z" id="Page-1"></path>
                </g>
            </g>
        </g>
    </g>
</svg>