<?xml version="1.0" encoding="UTF-8"?>
<svg width="93px" height="74px" viewBox="0 0 93 74" version="1.1" xmlns="http://www.w3.org/2000/svg" xmlns:xlink="http://www.w3.org/1999/xlink">
    <!-- Generator: Sketch 42 (36781) - http://www.bohemiancoding.com/sketch -->
    <title>co-browsing</title>
    <desc>Created with Sketch.</desc>
    <defs></defs>
    <g id="HOME" stroke="none" stroke-width="1" fill="none" fill-rule="evenodd">
        <g id="Desktop-HD---ICONES-SOLUTIONS" transform="translate(-538.000000, -571.000000)" fill="#CF1F26">
            <g id="MIDDLE-ROW" transform="translate(218.000000, 537.000000)">
                <g id="CO-BROWSING" transform="translate(273.000000, 0.000000)">
                    <g id="co-browsing" transform="translate(47.000000, 34.000000)">
                        <polygon id="Fill-1" points="33.511 31.806 31.536 24.816 29.519 31.806 27.236 31.806 24 22 26.381 22 28.44 29.397 30.485 22 32.657 22 34.73 29.397 36.775 22 39.044 22 35.794 31.806"></polygon>
                        <polygon id="Fill-2" points="48.511 31.806 46.536 24.816 44.519 31.806 42.236 31.806 39 22 41.381 22 43.44 29.397 45.485 22 47.657 22 49.73 29.397 51.775 22 54.044 22 50.794 31.806"></polygon>
                        <polygon id="Fill-3" points="63.511 31.806 61.536 24.816 59.519 31.806 57.236 31.806 54 22 56.381 22 58.44 29.397 60.485 22 62.657 22 64.73 29.397 66.775 22 69.044 22 65.794 31.806"></polygon>
                        <path d="M91.328,63.053 C90.786,62.15 89.31,59.891 86.902,56.278 L83.288,50.858 L83.288,9.214 C83.288,6.684 82.37,4.516 80.533,2.71 C78.696,0.903 76.513,0 73.984,0 L18.519,0 C15.99,0 13.807,0.903 11.97,2.71 C10.133,4.516 9.214,6.684 9.214,9.214 L9.214,50.858 C9.214,50.858 8.01,52.664 5.601,56.278 C3.192,59.891 1.717,62.15 1.175,63.053 C0.573,63.896 0.226,64.603 0.136,65.176 C0.046,65.748 0,66.365 0,67.028 L0,69.376 C0,70.52 0.482,71.574 1.446,72.538 C2.409,73.501 3.463,73.983 4.607,73.983 L87.895,73.983 C89.039,73.983 90.093,73.501 91.057,72.538 C92.02,71.574 92.502,70.52 92.502,69.376 L92.502,67.028 C92.502,66.365 92.457,65.748 92.367,65.176 C92.276,64.603 91.93,63.896 91.328,63.053 L91.328,63.053 Z M32.34,64.679 L35.14,60.072 L57.362,60.072 L60.162,64.679 L32.34,64.679 Z M18.519,46.251 L73.984,46.251 L73.984,9.214 L18.519,9.214 L18.519,46.251 Z" id="Fill-4"></path>
                    </g>
                </g>
            </g>
        </g>
    </g>
</svg>