<?xml version="1.0" encoding="UTF-8"?>
<svg width="75px" height="71px" viewBox="0 0 75 71" version="1.1" xmlns="http://www.w3.org/2000/svg" xmlns:xlink="http://www.w3.org/1999/xlink">
    <!-- Generator: Sketch 42 (36781) - http://www.bohemiancoding.com/sketch -->
    <title>Page 1</title>
    <desc>Created with Sketch.</desc>
    <defs></defs>
    <g id="HOME" stroke="none" stroke-width="1" fill="none" fill-rule="evenodd">
        <g id="Desktop-HD---ICONES-SOLUTIONS" transform="translate(-1089.000000, -569.000000)" fill="#D0011B">
            <g id="MIDDLE-ROW" transform="translate(218.000000, 537.000000)">
                <g id="GESTION-QUALITE" transform="translate(815.000000, 0.000000)">
                    <path d="M130.28571,59.45535 C130.28571,60.11012 129.89881,60.8244 129.125,61.59821 L112.91964,77.40178 L116.75893,99.72321 C116.78869,99.931544 116.80357,100.22916 116.80357,100.616067 C116.80357,101.24107 116.64732,101.769339 116.33482,102.200889 C116.02232,102.632438 115.56846,102.84821 114.97321,102.84821 C114.40774,102.84821 113.8125,102.66964 113.1875,102.312496 L93.14286,91.77678 L73.09821,102.312496 C72.44345,102.66964 71.84822,102.84821 71.3125,102.84821 C70.6875,102.84821 70.21875,102.632438 69.90625,102.200889 C69.59375,101.769339 69.4375,101.24107 69.4375,100.616067 C69.4375,100.437495 69.46726,100.139879 69.52679,99.72321 L73.36607,77.40178 L57.116071,61.59821 C56.3720201,60.79463 56,60.08036 56,59.45535 C56,58.35416 56.833325,57.66964 58.5,57.40178 L80.91071,54.14285 L90.95536,33.83035 C91.52084,32.61011 92.25,32 93.14286,32 C94.03572,32 94.76488,32.61011 95.33036,33.83035 L105.375,54.14285 L127.78571,57.40178 C129.45239,57.66964 130.28571,58.35416 130.28571,59.45535 Z" id="Page-1"></path>
                </g>
            </g>
        </g>
    </g>
</svg>