<?xml version="1.0" encoding="utf-8"?>
<!-- Generator: Adobe Illustrator 21.0.1, SVG Export Plug-In . SVG Version: 6.00 Build 0)  -->
<svg version="1.1" id="Layer_1" xmlns="http://www.w3.org/2000/svg" xmlns:xlink="http://www.w3.org/1999/xlink" x="0px" y="0px"
	 viewBox="0 0 119 89" style="enable-background:new 0 0 119 89;" xml:space="preserve">
<style type="text/css">
	.st0{fill:#D0011B;}
	.st1{fill:#FEFEFE;}
	.st2{filter:url(#Adobe_OpacityMaskFilter);}
	.st3{fill:#FFFFFF;}
	.st4{mask:url(#mask-2);fill:#D0011B;}
</style>
<title>EFFECTIF</title>
<desc>Created with Sketch.</desc>
<g id="HOME">
	<g id="Desktop-HD---ICONES-SOLUTIONS" transform="translate(-796.000000, -557.000000)">
		<g id="MIDDLE-ROW" transform="translate(218.000000, 537.000000)">
			<g id="GESTION-DES-EFFECTUFS" transform="translate(543.000000, 0.000000)">
				<g id="EFFECTIF" transform="translate(35.000000, 20.000000)">
					<path id="Fill-1" class="st0" d="M59.3,25c4.7,0,9.7,1,14.8,3.1c5.1,2.1,7.7,4.7,7.7,8.1v9.2h-45v-9.2c0-3.3,2.6-6,7.7-8.1
						C49.6,26,54.6,25,59.3,25 M59,20.6c-2.8,0-5.2-1-7.2-3c-2-2-3-4.4-3-7.2s1-5.3,3-7.3C53.8,1,56.2,0,59,0c2.8,0,5.2,1,7.2,3.1
						c2,2.1,3,4.5,3,7.3s-1,5.2-3,7.2C64.2,19.6,61.8,20.6,59,20.6"/>
					<path id="Fill-3" class="st1" d="M72,52.5c0,6.9-5.6,12.5-12.5,12.5s-12.5-5.6-12.5-12.5S52.7,40,59.6,40S72,45.6,72,52.5"/>
					<path id="Fill-5" class="st1" d="M44.4,46.7c0,8.7-7,15.7-15.7,15.7S13,55.4,13,46.7S20,31,28.7,31S44.4,38,44.4,46.7"/>
					<path id="Fill-7" class="st1" d="M104.7,46.2c0,8.4-6.8,15.2-15.2,15.2c-8.4,0-15.2-6.8-15.2-15.2S81.1,31,89.5,31
						C97.9,31,104.7,37.8,104.7,46.2"/>
					<g id="Group-11" transform="translate(0.000000, 33.277000)">
						<g id="Clip-10">
						</g>
						<defs>
							<filter id="Adobe_OpacityMaskFilter" filterUnits="userSpaceOnUse" x="0" y="0.6" width="118.4" height="54.4">
								<feColorMatrix  type="matrix" values="1 0 0 0 0  0 1 0 0 0  0 0 1 0 0  0 0 0 1 0"/>
							</filter>
						</defs>
						<mask maskUnits="userSpaceOnUse" x="0" y="0.6" width="118.4" height="54.4" id="mask-2">
							<g class="st2">
								<polygon id="path-1" class="st3" points="118.4,55 0,55 0,0.6 118.4,0.6 								"/>
							</g>
						</mask>
						<path id="Fill-9" class="st4" d="M101.5,31.9c4.2,1,8.1,2.7,11.6,5c3.5,2.3,5.3,4.9,5.3,7.9V55H89.7v-9.2
							c0-5.9-3.3-10.7-9.8-14.2c3.7-0.8,7-1.2,9.8-1.2C93.3,30.4,97.2,30.9,101.5,31.9 M81,21.6c-2.4-2.4-3.7-5.3-3.7-8.7
							c0-3.3,1.2-6.2,3.7-8.7c2.4-2.4,5.3-3.7,8.7-3.7s6.2,1.2,8.7,3.7c2.4,2.4,3.7,5.3,3.7,8.7c0,3.3-1.2,6.2-3.7,8.7
							c-2.4,2.4-5.3,3.7-8.7,3.7S83.5,24.1,81,21.6 M28.7,30.4c2.8,0,6.1,0.4,9.8,1.2c-6.5,3.6-9.8,8.3-9.8,14.2V55H0V44.8
							c0-3,1.8-5.6,5.3-7.9c3.5-2.3,7.4-4,11.6-5C21.2,30.9,25.1,30.4,28.7,30.4 M59.5,34.6c4.7,0,9.7,1,14.8,3.1
							c5.1,2.1,7.7,4.7,7.7,8.1V55H37v-9.2c0-3.3,2.6-6,7.7-8.1C49.8,35.6,54.7,34.6,59.5,34.6 M28.7,25.3c-3.3,0-6.2-1.2-8.7-3.7
							c-2.4-2.4-3.7-5.3-3.7-8.7c0-3.3,1.2-6.2,3.7-8.7c2.4-2.4,5.3-3.7,8.7-3.7c3.3,0,6.2,1.2,8.7,3.7C39.8,6.7,41,9.6,41,13
							c0,3.3-1.2,6.2-3.7,8.7C34.9,24.1,32,25.3,28.7,25.3 M59.5,30.3c-2.8,0-5.2-1-7.2-3c-2-2-3-4.4-3-7.2s1-5.3,3-7.3
							c2-2.1,4.4-3.1,7.2-3.1c2.8,0,5.2,1,7.2,3.1c2,2.1,3,4.5,3,7.3s-1,5.2-3,7.2C64.7,29.3,62.3,30.3,59.5,30.3"/>
					</g>
				</g>
			</g>
		</g>
	</g>
</g>
</svg>
