<?xml version="1.0" encoding="UTF-8"?>
<svg width="54px" height="68px" viewBox="0 0 54 68" version="1.1" xmlns="http://www.w3.org/2000/svg" xmlns:xlink="http://www.w3.org/1999/xlink">
    <!-- Generator: Sketch 42 (36781) - http://www.bohemiancoding.com/sketch -->
    <title>NOTIFICATIONS</title>
    <desc>Created with Sketch.</desc>
    <defs></defs>
    <g id="HOME" stroke="none" stroke-width="1" fill="none" fill-rule="evenodd">
        <g id="Desktop-HD---ICONES-SOLUTIONS" transform="translate(-830.000000, -1083.000000)" fill="#D0011B">
            <g id="BOTTOM-ROW" transform="translate(491.000000, 1053.000000)">
                <g id="NOTIFICATIONS" transform="translate(270.000000, 0.000000)">
                    <path d="M99,54.203125 L117.4375,54.203125 L99,35.921875 L99,54.203125 Z M109,77.484375 L109,70.921875 L99,70.921875 L99,60.921875 L92.4375,60.921875 L92.4375,70.921875 L82.4375,70.921875 L82.4375,77.484375 L92.4375,77.484375 L92.4375,87.484375 L99,87.484375 L99,77.484375 L109,77.484375 Z M102.4375,30.921875 L122.4375,50.921875 L122.4375,90.921875 C122.4375,92.692717 121.76042,94.22916 120.40625,95.53125 C119.05208,96.8333398 117.48959,97.484375 115.71875,97.484375 L75.71875,97.484375 C73.947908,97.484375 72.385423,96.8333398 71.03125,95.53125 C69.6770766,94.22916 69,92.692717 69,90.921875 L69.15625,37.484375 C69.15625,35.713535 69.8072852,34.177085 71.109375,32.874995 C72.411465,31.572915 73.947908,30.921875 75.71875,30.921875 L102.4375,30.921875 Z"></path>
                </g>
            </g>
        </g>
    </g>
</svg>