<?xml version="1.0" encoding="UTF-8"?>
<svg width="93px" height="71px" viewBox="0 0 93 71" version="1.1" xmlns="http://www.w3.org/2000/svg" xmlns:xlink="http://www.w3.org/1999/xlink">
    <!-- Generator: Sketch 42 (36781) - http://www.bohemiancoding.com/sketch -->
    <title>RAPPEL</title>
    <desc>Created with Sketch.</desc>
    <defs></defs>
    <g id="HOME" stroke="none" stroke-width="1" fill="none" fill-rule="evenodd">
        <g id="Desktop-HD---ICONES-SOLUTIONS" transform="translate(-264.000000, -826.000000)" fill="#D0011B">
            <g id="MIDDLE-02-ROW" transform="translate(218.000000, 795.000000)">
                <g id="RAPPEL">
                    <path d="M137.910156,85.0390625 C138.636719,85.765625 139,86.6738281 139,87.7636719 C139,88.8535156 138.636719,89.7617153 137.910156,90.4882812 L128.283203,100.115234 C127.556641,100.8418 126.648438,101.205078 125.558594,101.205078 C124.46875,101.205078 123.560547,100.8418 122.833984,100.115234 C119.443344,96.966781 115.992207,94.5449308 112.480469,92.8496094 C111.027332,92.2441375 110.300781,91.0937589 110.300781,89.3984375 L110.300781,77.4101562 C104.730442,75.5937384 98.7969021,74.6855469 92.5,74.6855469 C86.2030979,74.6855469 80.2695584,75.5937384 74.6992188,77.4101562 L74.6992188,89.3984375 C74.6992188,91.2148531 73.9726679,92.4257781 72.5195312,93.03125 C68.6445119,94.8476656 65.1933749,97.2089693 62.1660156,100.115234 C61.4394531,100.8418 60.53125,101.205078 59.4414062,101.205078 C58.3515625,101.205078 57.4433629,100.8418 56.7167969,100.115234 L47.0898438,90.4882812 C46.3632776,89.7617153 46,88.8535156 46,87.7636719 C46,86.6738281 46.3632776,85.765625 47.0898438,85.0390625 C59.8047456,72.9296255 74.941321,66.875 92.5,66.875 C110.058679,66.875 125.195254,72.9296255 137.910156,85.0390625 Z M71.2480469,40.6269531 L71.2480469,54.25 L65.4355469,54.25 L65.4355469,31 L88.6855469,31 L88.6855469,36.8125 L75.0625,36.8125 L92.5,54.25 L115.75,31 L119.564453,34.8144531 L92.5,62.0605469 L71.2480469,40.6269531 Z"></path>
                </g>
            </g>
        </g>
    </g>
</svg>