<?xml version="1.0" encoding="UTF-8"?>
<svg width="67px" height="66px" viewBox="0 0 67 66" version="1.1" xmlns="http://www.w3.org/2000/svg" xmlns:xlink="http://www.w3.org/1999/xlink">
    <!-- Generator: Sketch 42 (36781) - http://www.bohemiancoding.com/sketch -->
    <title>PORTE-VOIX</title>
    <desc>Created with Sketch.</desc>
    <defs></defs>
    <g id="HOME" stroke="none" stroke-width="1" fill="none" fill-rule="evenodd">
        <g id="Desktop-HD---ICONES-SOLUTIONS" transform="translate(-277.000000, -320.000000)" fill="#D0011B">
            <g id="TOP-ROW" transform="translate(218.000000, 278.000000)">
                <g id="RVI-VOIX">
                    <path d="M72.225974,56.0077922 C73.8502239,56.0077922 74.6623377,56.819906 74.6623377,58.4441558 L74.6623377,80.5454545 C74.4303067,81.9376735 73.618193,82.6337662 72.225974,82.6337662 C68.629419,82.6337662 65.5259874,81.3285881 62.9155844,78.7181874 C60.3051814,76.1077755 59,72.9463389 59,69.2337662 C59,65.5211936 60.2761779,62.3887594 62.8285714,59.8363636 C65.380965,57.2839678 68.5134014,56.0077922 72.225974,56.0077922 Z M126,45.2181818 L126,49.3948052 L126,90.4649351 L126,94.4675325 L126,94.8155844 C126,96.4398354 125.187886,97.2519481 123.563636,97.2519481 C122.983542,97.2519481 122.461476,97.019916 121.997403,96.5558442 L98.6779221,83.1558442 L81.6233766,83.1558442 C80.2311577,83.1558442 79.4190439,82.4017353 79.187013,80.8935065 L79.187013,57.9220779 C79.187013,56.2978281 79.9991268,55.4857143 81.6233766,55.4857143 L100.766234,55.4857143 L122.171429,43.3038961 C122.519481,42.9558442 122.983542,42.7818182 123.563636,42.7818182 C125.187886,42.7818182 126,43.593932 126,45.2181818 Z M97.9818182,101.428571 C98.5619122,102.588751 98.3878862,103.574888 97.4597403,104.387013 L97.4597403,104.561039 L92.9350649,106.997403 L92.587013,107.345455 C91.4268361,108.15758 90.3826914,107.867539 89.4545455,106.475325 L89.2805195,106.301299 L80.7532468,91.5090909 L80.7532468,91.3350649 C80.6372257,91.3350649 80.5792208,91.27706 80.5792208,91.161039 C79.7670959,89.76882 80.0571317,88.6666704 81.4493506,87.8545455 C81.9134236,87.6225145 82.2614756,87.5064935 82.4935065,87.5064935 L88.9324675,87.5064935 C89.5125615,87.5064935 90.0346283,87.8545455 90.4987013,88.5506494 L97.9818182,101.254545 L97.9818182,101.428571 Z" id="PORTE-VOIX"></path>
                </g>
            </g>
        </g>
    </g>
</svg>