<?xml version="1.0" encoding="UTF-8"?>
<svg width="67px" height="68px" viewBox="0 0 67 68" version="1.1" xmlns="http://www.w3.org/2000/svg" xmlns:xlink="http://www.w3.org/1999/xlink">
    <!-- Generator: Sketch 42 (36781) - http://www.bohemiancoding.com/sketch -->
    <title>Page 1</title>
    <desc>Created with Sketch.</desc>
    <defs></defs>
    <g id="HOME" stroke="none" stroke-width="1" fill="none" fill-rule="evenodd">
        <g id="Desktop-HD---ICONES-SOLUTIONS" transform="translate(-1093.000000, -323.000000)" fill="#D0011B">
            <g id="TOP-ROW" transform="translate(218.000000, 278.000000)">
                <g id="SMS" transform="translate(815.000000, 0.000000)">
                    <path d="M110,75.921875 L110,69.203125 L103.28125,69.203125 L103.28125,75.921875 L110,75.921875 Z M96.5625,75.921875 L96.5625,69.203125 L90,69.203125 L90,75.921875 L96.5625,75.921875 Z M83.28125,75.921875 L83.28125,69.203125 L76.5625,69.203125 L76.5625,75.921875 L83.28125,75.921875 Z M120,45.921875 C121.77084,45.921875 123.30729,46.572915 124.60938,47.874995 C125.91146,49.177085 126.5625,50.713535 126.5625,52.484375 L126.5625,92.484375 C126.5625,94.255215 125.91146,95.817705 124.60938,97.171875 C123.30729,98.526045 121.77084,99.203125 120,99.203125 L73.28125,99.203125 L60,112.484375 L60,52.484375 C60,50.713535 60.6510352,49.177085 61.953125,47.874995 C63.255215,46.572915 64.791658,45.921875 66.5625,45.921875 L120,45.921875 Z" id="Page-1"></path>
                </g>
            </g>
        </g>
    </g>
</svg>