<?xml version="1.0" encoding="UTF-8"?>
<svg width="60px" height="61px" viewBox="0 0 60 61" version="1.1" xmlns="http://www.w3.org/2000/svg" xmlns:xlink="http://www.w3.org/1999/xlink">
    <!-- Generator: Sketch 42 (36781) - http://www.bohemiancoding.com/sketch -->
    <title>PHONE SIP</title>
    <desc>Created with Sketch.</desc>
    <defs></defs>
    <g id="HOME" stroke="none" stroke-width="1" fill="none" fill-rule="evenodd">
        <g id="Desktop-HD---ICONES-SOLUTIONS" transform="translate(-554.000000, -1088.000000)" fill="#D0011B">
            <g id="BOTTOM-ROW" transform="translate(491.000000, 1053.000000)">
                <g id="SIP">
                    <path d="M103,65.640625 C103,62.932275 102.01043,60.588555 100.03125,58.609375 C98.05207,56.630195 95.70835,55.640625 93,55.640625 L93,48.921875 C97.58336,48.921875 101.51561,50.562485 104.79688,53.843745 C108.07814,57.125015 109.71875,61.057265 109.71875,65.640625 L103,65.640625 Z M116.28125,65.640625 C116.28125,59.182255 114.01565,53.687525 109.48438,49.156245 C104.9531,44.624975 99.45837,42.359375 93,42.359375 L93,35.640625 C101.33338,35.640625 108.41664,38.557265 114.25,44.390625 C120.08336,50.223985 123,57.307245 123,65.640625 L116.28125,65.640625 Z M119.71875,77.359375 C120.65625,77.359375 121.4375,77.671875 122.0625,78.296875 C122.6875,78.921875 123,79.703125 123,80.640625 L123,92.359375 C123,93.29688 122.6875,94.078122 122.0625,94.703125 C121.4375,95.3281281 120.65625,95.640625 119.71875,95.640625 C104.09367,95.640625 90.73443,90.093805 79.64062,79.000005 C68.54682,67.906195 63,54.546955 63,38.921875 C63,37.984375 63.3124969,37.203125 63.9375,36.578125 C64.562503,35.953125 65.343745,35.640625 66.28125,35.640625 L78,35.640625 C78.9375,35.640625 79.71875,35.953125 80.34375,36.578125 C80.96875,37.203125 81.28125,37.984375 81.28125,38.921875 C81.28125,43.088565 81.90624,47.046855 83.15625,50.796875 C83.57292,52.151045 83.3125,53.296875 82.375,54.234375 L75.03125,61.578125 C79.92711,71.161505 87.27078,78.505185 97.0625,83.609375 L104.40625,76.265625 C105.34375,75.328125 106.48958,75.067705 107.84375,75.484375 C111.59377,76.734385 115.55206,77.359375 119.71875,77.359375 Z" id="PHONE-SIP"></path>
                </g>
            </g>
        </g>
    </g>
</svg>