<?xml version="1.0" encoding="utf-8"?>
<!-- Generator: Adobe Illustrator 21.0.0, SVG Export Plug-In . SVG Version: 6.00 Build 0)  -->
<svg version="1.1" id="Layer_1" xmlns="http://www.w3.org/2000/svg" xmlns:xlink="http://www.w3.org/1999/xlink" x="0px" y="0px"
	 viewBox="0 0 69 53.6" style="enable-background:new 0 0 69 53.6;" xml:space="preserve">
<style type="text/css">
	.st0{fill:#D0011B;}
</style>
<title>Page 1</title>
<desc>Created with Sketch.</desc>
<g id="HOME">
	<g id="Desktop-HD---ICONES-SOLUTIONS" transform="translate(-278.000000, -579.000000)">
		<g id="MIDDLE-ROW" transform="translate(218.000000, 537.000000)">
			<g id="RESEAUX-SOCIAUX">
				<path id="Page-1" class="st0" d="M127.8,47.2c-2.8,1.3-5.7,2-8.8,2.3c-2.3-3.2-5.4-4.9-9.2-5.4c-3.6-0.4-6.9,0.6-9.8,3
					s-4.5,5.4-4.9,9.2c-0.1,1-0.1,2.1,0,3.2c-5.3-0.9-10.3-2.8-14.7-5.9c-4.5-3-8.1-6.9-11-11.5c-1.5,1.9-2.4,4.2-2.6,6.7
					c-0.5,4.8,1.1,8.8,4.7,12c-2.1-0.2-4-1-5.7-2.4l0,0.3c-0.3,3.2,0.3,6.2,2,8.9c1.7,2.7,4.1,4.6,7.1,5.7c-1.2,0.1-2.4,0.1-3.6,0
					c-0.8-0.1-1.7-0.3-2.5-0.5c0.6,2.9,2,5.3,4,7.4c2,2,4.5,3.2,7.3,3.5c-5.2,3.4-10.9,4.7-17,4c-1-0.1-2.1-0.3-3.1-0.5
					c5.8,4.8,12.3,7.6,19.6,8.4c5.9,0.7,11.4,0.1,16.5-1.7c5.1-1.8,9.4-4.4,12.9-7.8c3.5-3.4,6.3-7.3,8.5-11.7
					c2.2-4.4,3.5-8.8,4-13.4l0.2-1.7c2.8-1.7,5.3-3.8,7.3-6.4c-2.6,0.8-5.2,1.3-7.8,1.3C124.2,52.6,126.4,50.3,127.8,47.2z"/>
			</g>
		</g>
	</g>
</g>
</svg>
