<?xml version="1.0" encoding="UTF-8"?>
<svg width="69px" height="57px" viewBox="0 0 69 57" version="1.1" xmlns="http://www.w3.org/2000/svg" xmlns:xlink="http://www.w3.org/1999/xlink">
    <!-- Generator: Sketch 42 (36781) - http://www.bohemiancoding.com/sketch -->
    <title>Page 1</title>
    <desc>Created with Sketch.</desc>
    <defs></defs>
    <g id="HOME" stroke="none" stroke-width="1" fill="none" fill-rule="evenodd">
        <g id="Desktop-HD---ICONES-SOLUTIONS" transform="translate(-278.000000, -579.000000)" fill="#D0011B">
            <g id="MIDDLE-ROW" transform="translate(218.000000, 537.000000)">
                <g id="RESEAUX-SOCIAUX">
                    <path d="M127.158654,43.9230769 C124.376591,45.5384702 121.37021,46.6602535 118.139423,47.2884615 C115.35736,44.3269058 111.902264,42.8461538 107.774038,42.8461538 C103.915044,42.8461538 100.594563,44.237168 97.8125,47.0192308 C95.0304372,49.8012935 93.6394231,53.1217748 93.6394231,56.9807692 C93.6394231,58.0577009 93.7740385,59.1346068 94.0432692,60.2115385 C88.2996508,59.9423077 82.8926526,58.5064246 77.8221111,55.9038462 C72.7515782,53.3012677 68.4663634,49.8013022 64.9663462,45.4038462 C63.6201854,47.5577009 62.9471154,49.9358831 62.9471154,52.5384615 C62.9471154,57.5641255 65.0560685,61.4679372 69.2740385,64.25 C67.0304372,64.25 64.9214841,63.6666695 62.9471154,62.5 L62.9471154,62.7692308 C62.9471154,66.0897637 64.0015919,69.0512677 66.1105769,71.6538462 C68.2195619,74.2564246 70.9342748,75.9166609 74.2548077,76.6346154 C72.9983917,76.9038462 71.7419929,77.0384615 70.4855769,77.0384615 C69.5881382,77.0384615 68.690708,76.9487151 67.7932692,76.7692308 C68.7804545,79.64104 70.4631252,81.9967877 72.8413505,83.8365342 C75.2195671,85.6762892 77.9342834,86.5961538 80.9855769,86.5961538 C75.8701665,90.6346352 70.0368877,92.6538462 63.4855769,92.6538462 C62.4086487,92.6538462 61.2868644,92.6089746 60.1201923,92.5192308 C66.7612513,96.7372007 73.9855338,98.8461538 81.7932692,98.8461538 C88.0753492,98.8461538 93.8188815,97.6346274 99.0240385,95.2115385 C104.229195,92.7884495 108.469533,89.6250215 111.745188,85.7211495 C115.020852,81.8172862 117.556084,77.5096369 119.350962,72.7980726 C121.145839,68.0865169 122.043269,63.3525871 122.043269,58.5961538 L122.043269,56.8461538 C124.825332,54.7820369 127.158645,52.3141169 129.043269,49.4423077 C126.440691,50.6089772 123.748409,51.371792 120.966346,51.7307692 C124.01764,49.8461452 126.081722,47.2436098 127.158654,43.9230769 Z" id="Page-1"></path>
                </g>
            </g>
        </g>
    </g>
</svg>