<?xml version="1.0" encoding="UTF-8"?>
<svg width="41px" height="41px" viewBox="0 0 41 41" version="1.1" xmlns="http://www.w3.org/2000/svg" xmlns:xlink="http://www.w3.org/1999/xlink">
    <!-- Generator: Sketch 42 (36781) - http://www.bohemiancoding.com/sketch -->
    <title>linkedin-logo</title>
    <desc>Created with Sketch.</desc>
    <defs>
        <polygon id="path-1" points="0.0001 0.4658 0.0001 39.9316 39.466 39.9316 39.466 0.4658 0.0001 0.4658"></polygon>
    </defs>
    <g id="HOME" stroke="none" stroke-width="1" fill="none" fill-rule="evenodd">
        <g id="Desktop-HD---À-PROPOS---V2" transform="translate(-1065.000000, -41.000000)">
            <g id="HEADER">
                <g id="linkedin-logo" transform="translate(1065.750000, 41.000000)">
                    <polygon id="Fill-1" fill="#FFFFFF" points="11.3086 29.1864 14.9036 29.1864 14.9036 17.7954 11.3086 17.7954"></polygon>
                    <g id="Group-9" transform="translate(0.000000, 0.465800)">
                        <path d="M24.72615,17.2197 C22.66665,17.2197 21.37615,18.3352 21.13715,19.1172 L21.13715,17.3297 L17.09865,17.3297 C17.15115,18.2787 17.09865,28.7207 17.09865,28.7207 L21.13715,28.7207 L21.13715,22.5562 C21.13715,22.2137 21.12115,21.8712 21.22515,21.6257 C21.50315,20.9402 22.09915,20.2297 23.17215,20.2297 C24.57415,20.2297 25.21215,21.2827 25.21215,22.8257 L25.21215,28.7207 L29.28865,28.7207 L29.28865,22.3867 C29.28865,18.8582 27.28065,17.2197 24.72615,17.2197" id="Fill-2" fill="#FFFFFF"></path>
                        <path d="M13.03965,11.95235 C11.71215,11.95235 10.84315,12.80485 10.84315,13.93035 C10.84315,15.03385 11.68715,15.90485 12.98815,15.90485 L13.01415,15.90485 C14.36565,15.90485 15.20715,15.03085 15.20715,13.92685 C15.18115,12.80285 14.36565,11.95235 13.03965,11.95235" id="Fill-4" fill="#FFFFFF"></path>
                        <g id="Group-8">
                            <mask id="mask-2" fill="white">
                                <use xlink:href="#path-1"></use>
                            </mask>
                            <g id="Clip-7"></g>
                            <path d="M19.733,1.9658 C9.6795,1.9658 1.5,10.1448 1.5,20.1988 C1.5,30.2523 9.6795,38.4318 19.733,38.4318 C29.7865,38.4318 37.966,30.2523 37.966,20.1988 C37.966,10.1448 29.7865,1.9658 19.733,1.9658 M19.733,39.9318 C8.852,39.9318 0,31.0798 0,20.1988 C0,9.3178 8.852,0.4658 19.733,0.4658 C30.614,0.4658 39.466,9.3178 39.466,20.1988 C39.466,31.0798 30.614,39.9318 19.733,39.9318" id="Fill-6" fill="#FFFFFF" mask="url(#mask-2)"></path>
                        </g>
                    </g>
                </g>
            </g>
        </g>
    </g>
</svg>