<?xml version="1.0" encoding="UTF-8"?>
<svg width="21px" height="18px" viewBox="0 0 21 18" version="1.1" xmlns="http://www.w3.org/2000/svg" xmlns:xlink="http://www.w3.org/1999/xlink">
    <!-- Generator: Sketch 42 (36781) - http://www.bohemiancoding.com/sketch -->
    <title>email-pic</title>
    <desc>Created with Sketch.</desc>
    <defs></defs>
    <g id="HOME" stroke="none" stroke-width="1" fill="none" fill-rule="evenodd">
        <g id="Desktop-HD---À-PROPOS---V2" transform="translate(-530.000000, -2728.000000)" fill="#FFFFFF">
            <g id="FOOTER" transform="translate(0.000000, 2531.000000)">
                <path d="M548.660943,202.038145 L548.660943,200.01715 L540.623961,205.046138 L532.58698,200.01715 L532.58698,202.038145 L540.623961,207.020134 L548.660943,202.038145 Z M548.660943,197.996155 C549.19361,197.996155 549.655773,198.19982 550.047441,198.607153 C550.439106,199.014487 550.634938,199.484482 550.634938,200.01715 L550.634938,212.049122 C550.634938,212.58179 550.439106,213.051784 550.047441,213.459119 C549.655773,213.866453 549.19361,214.070117 548.660943,214.070117 L532.58698,214.070117 C532.054312,214.070117 531.592151,213.866453 531.200483,213.459119 C530.808816,213.051784 530.612985,212.58179 530.612985,212.049122 L530.612985,200.01715 C530.612985,199.484482 530.808816,199.014487 531.200483,198.607153 C531.592151,198.19982 532.054312,197.996155 532.58698,197.996155 L548.660943,197.996155 Z" id="email-pic"></path>
            </g>
        </g>
    </g>
</svg>