<?xml version="1.0" encoding="utf-8"?>
<!-- Generator: Adobe Illustrator 21.0.0, SVG Export Plug-In . SVG Version: 6.00 Build 0)  -->
<svg version="1.1" id="Layer_1" xmlns="http://www.w3.org/2000/svg" xmlns:xlink="http://www.w3.org/1999/xlink" x="0px" y="0px"
	 viewBox="0 0 249 75.2" style="enable-background:new 0 0 249 75.2;" xml:space="preserve">
<style type="text/css">
	.st0{fill:#FFFFFF;}
	.st1{fill:#D0021B;}
	.st2{fill:url(#SVGID_1_);}
</style>
<path class="st0" d="M71.8,32.4l1.5-5.7c0.7-2.7,1.8-6.2,2-11h0.4c0.3,4.9,1.3,8.4,2,11l1.5,5.7H71.8z M47.8,50.6h19.4l1.5-6.3h13.6
	l1.6,6.3h19.4L85.8,0.4H65.7L47.8,50.6z"/>
<path class="st1" d="M131.5,35c-0.6,2.1-1.3,3.4-1.7,4.2l-5.7,11.4h-20.7l17.9-26.8L105.5,0.4h20.6l3.7,8.2c0.4,0.8,1.1,2.1,1.6,4.1
	c0.6-2,1.2-3.3,1.5-4.1l3.8-8.2h20.5l-15.7,23.5l17.9,26.8h-20.7l-5.8-11.4C132.6,38.5,132,37.1,131.5,35z"/>
<path class="st0" d="M174.3,28.4L157.5,0.4h20.6l4.2,9.8c0.6,1.3,1,2.6,1.5,4.1c0.5-1.5,1-2.9,1.5-4.1l4.1-9.8h20.5l-17.4,28.1v22.2
	h-18.2V28.4z"/>
<polygon class="st0" points="212.9,0.4 230.9,0.4 230.9,34.3 248.5,34.3 248.5,50.6 212.9,50.6 "/>
<g>
	<path class="st0" d="M33.9,61.1c0.1-1.4-0.6-2.4-2.1-2.4c-2.1,0-2.4,1.3-2.4,2.4c0,0.9,0.4,1.5,1.2,1.8c0.7,0.3,1.4,0.5,2.1,0.8
		c2.5,0.9,3,1.8,3,3.6c0,2.5-1.6,4-4.1,4c-1.3,0-2.9-0.4-3.6-2.1c-0.3-0.7-0.3-1.7-0.3-2.4h1.5c-0.1,2,0.3,3.2,2.5,3.2
		c1.5,0,2.5-0.8,2.5-2.3c0-2-0.8-2-2.1-2.5c-0.7-0.3-1.9-0.7-2.6-1c-1.3-0.6-1.6-1.7-1.6-3c0-2.2,1.5-3.6,3.7-3.6
		c2.4,0,3.9,1.2,3.7,3.7H33.9z"/>
	<path class="st0" d="M59.3,57.4c3.9,0,4.3,3.6,4.3,6.6c0,3.7-0.5,7.2-4.3,7.2c-3.9,0-4.3-3.5-4.3-7.2
		C54.9,60.9,55.4,57.4,59.3,57.4z M59.2,58.7c-2.3,0-2.8,2.4-2.8,5.3c0,3.8,0.4,5.8,2.8,5.8c2.4,0,2.8-2,2.8-5.8
		C62.1,61.1,61.6,58.7,59.2,58.7z"/>
	<path class="st0" d="M83.3,70.8V57.6h1.5v11.9h5.4v1.3H83.3z"/>
	<path class="st0" d="M109.3,57.6h1.5v9.5c0,1,0.2,2.7,2.5,2.7c2.3,0,2.5-1.7,2.5-2.7v-9.5h1.5v10c0,2.4-1.6,3.5-4,3.5
		c-2.4,0-4-1.1-4-3.5V57.6z"/>
	<path class="st0" d="M136.2,57.6h8.3V59h-3.4v11.9h-1.5V59h-3.4V57.6z"/>
	<path class="st0" d="M163.7,70.8V57.6h1.5v13.2H163.7z"/>
	<path class="st0" d="M189.5,57.4c3.9,0,4.3,3.6,4.3,6.6c0,3.7-0.5,7.2-4.3,7.2c-3.9,0-4.3-3.5-4.3-7.2
		C185.1,60.9,185.6,57.4,189.5,57.4z M189.4,58.7c-2.3,0-2.8,2.4-2.8,5.3c0,3.8,0.4,5.8,2.8,5.8c2.4,0,2.8-2,2.8-5.8
		C192.3,61.1,191.8,58.7,189.4,58.7z"/>
	<path class="st0" d="M220,57.6h1.5v13.2h-2.4l-3.7-10.6c-0.2-0.6-0.4-1.2-0.5-2h0c0,0.7,0,1.4,0,2v10.5h-1.5V57.6h2.4l3.8,10.8
		c0.2,0.4,0.3,0.8,0.5,1.4h0c0-0.5,0-1,0-1.5V57.6z"/>
	<path class="st0" d="M247.1,61.1c0.1-1.4-0.6-2.4-2.1-2.4c-2.1,0-2.4,1.3-2.4,2.4c0,0.9,0.4,1.5,1.2,1.8c0.7,0.3,1.4,0.5,2.1,0.8
		c2.5,0.9,3,1.8,3,3.6c0,2.5-1.6,4-4.1,4c-1.3,0-2.9-0.4-3.6-2.1c-0.3-0.7-0.3-1.7-0.3-2.4h1.5c-0.1,2,0.3,3.2,2.5,3.2
		c1.5,0,2.5-0.8,2.5-2.3c0-2-0.8-2-2.1-2.5c-0.7-0.3-1.9-0.7-2.6-1c-1.2-0.6-1.6-1.7-1.6-3c0-2.2,1.5-3.6,3.7-3.6
		c2.4,0,3.9,1.2,3.8,3.7H247.1z"/>
</g>
<g>
	<path class="st0" d="M24.2,0H12.9v0H0v42.4l17.4-11.6V17.4h6.8c4.5,0,8.2,3.7,8.2,8.2c0,4.5-3.7,8.2-8.2,8.2h-6.9v17.4h6.9
		c14.1,0,25.6-11.5,25.6-25.6C49.8,11.5,38.3,0,24.2,0z"/>
	<linearGradient id="SVGID_1_" gradientUnits="userSpaceOnUse" x1="8.7188" y1="75.2196" x2="8.7188" y2="42.4498">
		<stop  offset="2.750319e-02" style="stop-color:#FFFFFF;stop-opacity:0"/>
		<stop  offset="0.6522" style="stop-color:#FFFFFF"/>
	</linearGradient>
	<path class="st2" d="M0,75.2h17.4V53.9L0,42.4C0,42.4,0,72.3,0,75.2z"/>
</g>
</svg>
