<?xml version="1.0" encoding="utf-8"?>
<!-- Generator: Adobe Illustrator 21.0.1, SVG Export Plug-In . SVG Version: 6.00 Build 0)  -->
<svg version="1.1" id="Layer_1" xmlns="http://www.w3.org/2000/svg" xmlns:xlink="http://www.w3.org/1999/xlink" x="0px" y="0px"
	 viewBox="0 0 217 118.6" style="enable-background:new 0 0 217 118.6;" xml:space="preserve">
<style type="text/css">
	.st0{fill:#2E2A25;}
	.st1{fill:url(#SVGID_1_);}
	.st2{fill:#C3002F;}
</style>
<g>
	<path class="st0" d="M56.2,48.4l1.2-4.5c0.6-2.1,1.4-4.8,1.6-8.6h0.3c0.2,3.8,1,6.5,1.6,8.6l1.2,4.5H56.2z M37.4,62.8h15.2l1.2-5
		h10.7l1.3,5h15.2L67.2,23.4H51.4L37.4,62.8z"/>
	<path class="st0" d="M158.5,45.4l-13.2-22h16.1l3.3,7.6c0.4,1,0.8,2,1.2,3.2c0.4-1.2,0.8-2.3,1.2-3.2l3.2-7.6h16l-13.6,22v17.4
		h-14.3V45.4z"/>
	<polygon class="st0" points="189.1,23.4 203.2,23.4 203.2,50 217,50 217,62.8 189.1,62.8 	"/>
	<g>
		<path class="st0" d="M19,23.1h-5.4v13.6H19c3.5,0,6.4,2.9,6.4,6.4c0,3.5-2.9,6.4-6.4,6.4h-5.4v13.6H19c11,0,20-9,20-20
			C39,32.1,30,23.1,19,23.1z"/>
		<g>
			<polygon class="st0" points="13.6,47.2 13.6,23.1 0,23.1 0,56.3 			"/>
			<linearGradient id="SVGID_1_" gradientUnits="userSpaceOnUse" x1="6.8246" y1="79.6864" x2="6.8246" y2="56.3359">
				<stop  offset="2.750319e-02" style="stop-color:#2E2A25;stop-opacity:0"/>
				<stop  offset="0.6522" style="stop-color:#2E2A25"/>
			</linearGradient>
			<path class="st1" d="M0,79.7h13.6V65.3L0,56.3C0,56.3,0,79.7,0,79.7z"/>
		</g>
	</g>
</g>
<path class="st2" d="M96.2,43.4L70.1,86.7h34.1l6.2-15.9c0.6-1.5,1.7-3.8,2.7-7.4c0.9,3.7,2,5.9,2.6,7.4l6.3,15.9h34l-25.9-43.3v0
	L155.9,0h-34l-6.3,16c-0.6,1.5-1.6,3.8-2.6,7.4c-0.9-3.7-2.1-5.9-2.7-7.4l-6.2-16H70.1L96.2,43.4L96.2,43.4z"/>
<g>
	<path class="st0" d="M68.8,100.8L68.8,100.8c0-5,3.8-8.9,9-8.9c3.5,0,5.7,1.5,7.2,3.5l-3.6,2.8c-1-1.2-2.1-2-3.7-2
		c-2.4,0-4.1,2-4.1,4.5v0c0,2.6,1.7,4.6,4.1,4.6c1.8,0,2.8-0.8,3.9-2.1l3.6,2.5c-1.6,2.2-3.8,3.8-7.5,3.8
		C72.8,109.6,68.8,105.8,68.8,100.8z"/>
	<path class="st0" d="M87.3,92.2h4.7v12.9h8.3v4.1h-13V92.2z"/>
	<path class="st0" d="M101,100.8L101,100.8c0-4.9,3.9-8.9,9.2-8.9s9.2,3.9,9.2,8.8v0c0,4.9-3.9,8.9-9.2,8.9S101,105.7,101,100.8z
		 M114.5,100.8L114.5,100.8c0-2.5-1.8-4.7-4.4-4.7s-4.3,2.1-4.3,4.6v0c0,2.5,1.8,4.6,4.4,4.6C112.8,105.3,114.5,103.2,114.5,100.8z"
		/>
	<path class="st0" d="M121.7,101.8v-9.6h4.8v9.5c0,2.5,1.2,3.6,3.1,3.6c1.9,0,3.2-1.1,3.2-3.5v-9.6h4.8v9.5c0,5.5-3.1,7.9-8,7.9
		C124.7,109.6,121.7,107.1,121.7,101.8z"/>
	<path class="st0" d="M140.5,92.2h6.6c6.1,0,9.6,3.5,9.6,8.4v0c0,4.9-3.6,8.6-9.7,8.6h-6.5V92.2z M145.2,96.3v8.7h1.9
		c2.9,0,4.7-1.6,4.7-4.3v0c0-2.7-1.9-4.3-4.7-4.3H145.2z"/>
</g>
<rect x="70.2" y="114.3" class="st2" width="85.6" height="4.3"/>
</svg>
