<?xml version="1.0" encoding="UTF-8"?>
<svg width="15px" height="22px" viewBox="0 0 15 22" version="1.1" xmlns="http://www.w3.org/2000/svg" xmlns:xlink="http://www.w3.org/1999/xlink">
    <!-- Generator: Sketch 42 (36781) - http://www.bohemiancoding.com/sketch -->
    <title>phone-pic</title>
    <desc>Created with Sketch.</desc>
    <defs></defs>
    <g id="HOME" stroke="none" stroke-width="1" fill="none" fill-rule="evenodd">
        <g id="Desktop-HD---À-PROPOS---V2" transform="translate(-533.000000, -2687.000000)" fill="#FFFFFF">
            <g id="FOOTER" transform="translate(0.000000, 2531.000000)">
                <path d="M550.034526,172.486324 C550.034526,172.724276 549.990461,173.03493 549.902331,173.418295 C549.814201,173.801659 549.721668,174.1035 549.624723,174.323824 C549.439651,174.764474 548.902067,175.231555 548.011957,175.725082 C547.183534,176.174545 546.363938,176.399273 545.553143,176.399273 C545.315194,176.399273 545.083857,176.38385 544.859124,176.353005 C544.634393,176.322159 544.381025,176.267079 544.099008,176.187762 C543.816992,176.108445 543.607689,176.044552 543.471085,175.99608 C543.334484,175.947609 543.089929,175.857277 542.73741,175.725082 C542.384888,175.592887 542.168973,175.513572 542.089658,175.487133 C541.225983,175.178678 540.454858,174.812945 539.776261,174.389921 C538.648196,173.693695 537.482696,172.74411 536.279724,171.541137 C535.076751,170.338164 534.127166,169.172665 533.430939,168.0446 C533.007916,167.366002 532.642182,166.594878 532.333728,165.731202 C532.307289,165.651888 532.227973,165.435973 532.095778,165.083451 C531.963583,164.730932 531.873252,164.486377 531.82478,164.349776 C531.776309,164.213172 531.712416,164.003869 531.633099,163.721852 C531.553782,163.439835 531.498701,163.186468 531.467856,162.961737 C531.437011,162.737004 531.421588,162.505667 531.421588,162.267718 C531.421588,161.456922 531.646316,160.637327 532.095778,159.808904 C532.589306,158.918794 533.056387,158.381209 533.497037,158.196137 C533.717361,158.099192 534.019201,158.006659 534.402565,157.91853 C534.78593,157.8304 535.096585,157.786335 535.334537,157.786335 C535.457916,157.786335 535.550452,157.799554 535.612144,157.825994 C535.770776,157.878871 536.004319,158.213759 536.312773,158.830667 C536.409715,158.998114 536.541907,159.236063 536.709354,159.544517 C536.876801,159.852971 537.031026,160.132779 537.172033,160.38395 C537.313043,160.635121 537.449641,160.870864 537.581836,161.091188 C537.608276,161.12644 537.685387,161.236601 537.813175,161.421673 C537.940964,161.606748 538.035703,161.763173 538.097393,161.890962 C538.159085,162.01875 538.189928,162.144335 538.189928,162.267718 C538.189928,162.443977 538.064346,162.664298 537.813175,162.928688 C537.562005,163.193077 537.288806,163.435429 536.993571,163.655756 C536.698338,163.876081 536.42514,164.109621 536.173969,164.356385 C535.922798,164.603146 535.797216,164.805843 535.797216,164.964478 C535.797216,165.043795 535.819247,165.14294 535.863312,165.261913 C535.907377,165.380889 535.944832,165.471222 535.975676,165.532912 C536.006522,165.594604 536.068212,165.700359 536.160748,165.850178 C536.253286,165.999998 536.303961,166.083721 536.312773,166.101346 C536.982558,167.308728 537.749277,168.344236 538.612949,169.207911 C539.476625,170.071584 540.512133,170.838302 541.719515,171.508088 C541.73714,171.5169 541.820863,171.567574 541.970682,171.660113 C542.120502,171.752649 542.226256,171.814339 542.287949,171.845185 C542.349638,171.876028 542.439971,171.913484 542.558947,171.957549 C542.67792,172.001614 542.777066,172.023645 542.856383,172.023645 C543.015018,172.023645 543.217714,171.898062 543.464476,171.646892 C543.71124,171.395721 543.94478,171.122522 544.165104,170.82729 C544.385432,170.532054 544.627784,170.258856 544.892173,170.007685 C545.156562,169.756515 545.376884,169.630932 545.553143,169.630932 C545.676525,169.630932 545.802111,169.661776 545.929899,169.723468 C546.057687,169.785158 546.214113,169.879897 546.399188,170.007685 C546.58426,170.135474 546.69442,170.212585 546.729673,170.239025 C546.949997,170.37122 547.18574,170.507817 547.436911,170.648827 C547.688081,170.789834 547.967889,170.94406 548.276343,171.111507 C548.584797,171.278954 548.822746,171.411146 548.990193,171.508088 C549.607102,171.816542 549.94199,172.050085 549.994867,172.208716 C550.021307,172.270409 550.034526,172.362945 550.034526,172.486324 Z" id="phone-pic" transform="translate(540.728057, 167.092804) rotate(22.000000) translate(-540.728057, -167.092804) "></path>
            </g>
        </g>
    </g>
</svg>