<?xml version="1.0" encoding="UTF-8"?>
<svg width="17px" height="22px" viewBox="0 0 17 22" version="1.1" xmlns="http://www.w3.org/2000/svg" xmlns:xlink="http://www.w3.org/1999/xlink">
    <!-- Generator: Sketch 42 (36781) - http://www.bohemiancoding.com/sketch -->
    <title>pin-pic</title>
    <desc>Created with Sketch.</desc>
    <defs></defs>
    <g id="HOME" stroke="none" stroke-width="1" fill="none" fill-rule="evenodd">
        <g id="Desktop-HD---À-PROPOS---V2" transform="translate(-530.000000, -2640.000000)" fill="#FFFFFF">
            <g id="FOOTER" transform="translate(0.000000, 2531.000000)">
                <path d="M530.612985,117.341386 C530.612985,116.247163 530.827235,115.195037 531.255743,114.184986 C531.645991,113.228494 532.223702,112.363839 532.988895,111.590996 C533.731131,110.84876 534.591959,110.274874 535.571405,109.869323 C536.566154,109.440816 537.61828,109.226565 538.727808,109.226565 C539.860291,109.226565 540.916242,109.440816 541.895688,109.869323 C542.867483,110.274874 543.728309,110.84876 544.478198,111.590996 C545.243391,112.356188 545.824929,113.220843 546.222828,114.184986 C546.651335,115.195037 546.865586,116.247163 546.865586,117.341386 C546.865586,118.435611 546.651335,119.487737 546.222828,120.497789 C545.94736,121.117596 545.664241,121.630265 545.37347,122.035819 L540.001845,130.196552 C539.649857,130.732187 539.229007,131 538.739285,131 C538.249564,131 537.824888,130.732187 537.465246,130.196552 L532.105102,122.035819 C531.753113,121.546094 531.469997,121.033424 531.255743,120.497789 C530.827235,119.487737 530.612985,118.435611 530.612985,117.341386 Z M535.720616,117.341386 C535.720616,118.183098 536.011387,118.894716 536.592931,119.476263 C537.189781,120.073113 537.901399,120.371532 538.727808,120.371532 C539.577172,120.371532 540.292615,120.073113 540.874162,119.476263 C541.463358,118.90237 541.757954,118.190749 541.757954,117.341386 C541.757954,116.507328 541.463358,115.79571 540.874162,115.206512 C540.292615,114.609662 539.577172,114.31124 538.727808,114.31124 C537.901399,114.31124 537.189781,114.609662 536.592931,115.206512 C536.011387,115.803361 535.720616,116.514979 535.720616,117.341386 Z" id="pin-pic"></path>
            </g>
        </g>
    </g>
</svg>